<svg xmlns="http://www.w3.org/2000/svg" xmlns:xlink="http://www.w3.org/1999/xlink" viewBox="0,0,256,256" width="64px" height="64px" fill-rule="nonzero"><defs><linearGradient x1="48" y1="41.583" x2="48" y2="50.252" gradientUnits="userSpaceOnUse" id="color-1"><stop offset="0" stop-color="#6dc7ff"></stop><stop offset="1" stop-color="#e6abff"></stop></linearGradient><linearGradient x1="26" y1="11.833" x2="26" y2="52.17" gradientUnits="userSpaceOnUse" id="color-2"><stop offset="0" stop-color="#1a6dff"></stop><stop offset="1" stop-color="#c822ff"></stop></linearGradient><linearGradient x1="25" y1="11.833" x2="25" y2="52.17" gradientUnits="userSpaceOnUse" id="color-3"><stop offset="0" stop-color="#1a6dff"></stop><stop offset="1" stop-color="#c822ff"></stop></linearGradient><linearGradient x1="32" y1="11.833" x2="32" y2="52.17" gradientUnits="userSpaceOnUse" id="color-4"><stop offset="0" stop-color="#1a6dff"></stop><stop offset="1" stop-color="#c822ff"></stop></linearGradient></defs><g fill="none" fill-rule="nonzero" stroke="none" stroke-width="1" stroke-linecap="butt" stroke-linejoin="miter" stroke-miterlimit="10" stroke-dasharray="" stroke-dashoffset="0" font-family="none" font-weight="none" font-size="none" text-anchor="none" style="mix-blend-mode: normal"><g transform="scale(4,4)"><path d="M50,42h-4c-0.552,0 -1,0.448 -1,1v7h6v-7c0,-0.552 -0.448,-1 -1,-1z" fill="url(#color-1)"></path><path d="M25,41h2v4h-2z" fill="url(#color-2)"></path><path d="M19,30h12v2h-12z" fill="url(#color-3)"></path><path d="M56,32v-2c0,-1.103 -0.897,-2 -2,-2h-12v-2c1.103,0 2,-0.897 2,-2v-2c0,-1.103 -0.897,-2 -2,-2h-0.382l-3.447,-6.895c-0.342,-0.681 -1.027,-1.105 -1.79,-1.105h-22.762c-0.763,0 -1.448,0.424 -1.791,1.106l-3.446,6.894h-0.382c-1.103,0 -2,0.897 -2,2v2c0,1.103 0.897,2 2,2v24c0,1.103 0.897,2 2,2h9h12h9h2h12c1.103,0 2,-0.897 2,-2v-12c1.103,0 2,-0.897 2,-2v-2c0,-1.103 -0.897,-2 -2,-2zM54,30v2h-12v-2zM13.619,14h22.762l3.001,6h-28.764zM8,22h34v2h-34zM40,26v6v4v2v4h-4v2h4v2h-9v-9c0,-1.654 -1.346,-3 -3,-3h-6c-1.654,0 -3,1.346 -3,3v9h-9v-2h4v-2h-4v-16zM10,50v-2h9v2zM21,50v-13c0,-0.552 0.448,-1 1,-1h6c0.552,0 1,0.448 1,1v13zM31,50v-2h9v2zM54,50h-12v-12h12zM56,36h-14v-2h14z" fill="url(#color-4)"></path></g></g></svg>